<svg xmlns="http://www.w3.org/2000/svg" width="320" height="320" viewBox="0 0 320 320">
  <g fill="none" stroke="#0C7A70" stroke-width="2.2" stroke-linecap="round">
    <path d="M20 40 H110 V95 H190"/>
    <path d="M190 95 V20"/>
    <path d="M20 150 H80 V220 H160 V280"/>
    <path d="M160 220 H240 V150 H300"/>
    <path d="M240 150 V70 H300"/>
    <path d="M80 220 V300"/>
    <path d="M40 270 H120"/>
    <path d="M215 40 V10"/>
    <path d="M270 200 H310"/>
  </g>
  <g fill="#0C7A70">
    <circle cx="20" cy="40" r="5"/>
    <circle cx="110" cy="40" r="4"/>
    <circle cx="190" cy="95" r="5"/>
    <circle cx="190" cy="20" r="4"/>
    <circle cx="20" cy="150" r="4"/>
    <circle cx="80" cy="220" r="5"/>
    <circle cx="160" cy="220" r="4"/>
    <circle cx="160" cy="280" r="5"/>
    <circle cx="240" cy="150" r="5"/>
    <circle cx="300" cy="150" r="4"/>
    <circle cx="240" cy="70" r="4"/>
    <circle cx="80" cy="300" r="4"/>
    <circle cx="120" cy="270" r="4"/>
  </g>
  <g fill="#B4590A">
    <circle cx="215" cy="10" r="5"/>
    <circle cx="310" cy="200" r="5"/>
    <circle cx="300" cy="70" r="4.5"/>
    <circle cx="40" cy="270" r="4.5"/>
  </g>
</svg>
